<svg width="32" height="36" fill="none" xmlns="http://www.w3.org/2000/svg"><path fill-rule="evenodd" clip-rule="evenodd" d="M31.5 25.2c0 .675-.225 1.125-.675 1.35-.225.9-.225 4.05 0 5.175.45.45.675.9.675 1.35V34.2c0 1.125-.9 1.8-1.8 1.8H6.75C2.925 36 0 33.075 0 29.25V6.75C0 2.925 2.925 0 6.75 0H29.7c1.125 0 1.8.675 1.8 1.8v23.4zM14.103 12.375c.187-3.113 1.106-5.01 1.647-5.533.54.524 1.46 2.421 1.648 5.533h-3.295zm8.283 0a6.74 6.74 0 00-3.748-4.95c.54 1.34.895 3.05 1 4.95h2.748zm0 2.25h-2.748c-.105 1.9-.46 3.61-1 4.95a6.74 6.74 0 003.748-4.95zm-9.524-7.2a6.739 6.739 0 00-3.748 4.95h2.748c.105-1.9.46-3.61 1-4.95zm-1 7.2c.105 1.9.46 3.61 1 4.95a6.739 6.739 0 01-3.748-4.95h2.748zm5.535 0h-3.295c.187 3.112 1.107 5.01 1.647 5.533.542-.524 1.461-2.421 1.648-5.533zM15.75 4.5a9 9 0 110 18 9 9 0 010-18zm-9 27H27V27H6.75c-1.125 0-2.25.9-2.25 2.25s.9 2.25 2.25 2.25z" fill="#FF4F4F"/></svg>