<svg width="36" height="36" fill="none" xmlns="http://www.w3.org/2000/svg"><path fill-rule="evenodd" clip-rule="evenodd" d="M20.25 11.754V9.777A19.046 19.046 0 0116.447.974C16.299.024 15.11-.348 14.492.39a18.962 18.962 0 00-3.438 6.083 16.895 16.895 0 009.196 5.28zm7.875-7.257a5.63 5.63 0 00-5.625 5.632v4.177A19.096 19.096 0 016.118 2.936c-.387-.88-1.631-.928-2.039-.063a18.98 18.98 0 00-1.828 8.135c0 4.979 2.398 9.626 5.983 13.072a28.72 28.72 0 002.736 2.306L.852 28.918a1.132 1.132 0 00-.668 1.715C1.407 32.525 4.431 35.731 10.956 36a2.26 2.26 0 001.553-.556l4.585-3.945H22.5c6.216 0 11.25-5.027 11.25-11.243V8.997l2.25-4.5h-7.875zM27 10.129c0 .619.506 1.125 1.125 1.125s1.125-.506 1.125-1.125-.506-1.125-1.125-1.125S27 9.51 27 10.13z" fill="#FF4F4F"/></svg>