<svg width="36" height="33" fill="none" xmlns="http://www.w3.org/2000/svg"><path fill-rule="evenodd" clip-rule="evenodd" d="M31.34 11.985c-1.099-.649-2.266-1.035-3.451-1.241.374-1.105.624-2.271.624-3.507 0-2.558-.905-5.04-2.558-7a.49.49 0 00-.624-.112.516.516 0 00-.225.605c.281.861.412 1.64.412 2.402 0 4.23-3.357 7.668-7.487 7.668s-7.487-3.438-7.487-7.668c0-.755.137-1.541.412-2.402a.516.516 0 00-.225-.605.49.49 0 00-.624.112 10.893 10.893 0 00-2.558 7c0 1.236.244 2.402.624 3.507-1.18.206-2.352.592-3.45 1.241C2.564 13.265.917 15.311.087 17.75a.52.52 0 00.219.612.488.488 0 00.623-.1c.587-.674 1.186-1.192 1.822-1.566 3.575-2.115 8.161-.855 10.226 2.808 2.066 3.662.836 8.36-2.739 10.475-.636.38-1.372.649-2.233.836a.516.516 0 00-.4.506c.007.25.169.455.406.499 2.477.486 5.029.05 7.187-1.23 1.123-.66 2.053-1.528 2.827-2.501.773.973 1.703 1.84 2.826 2.502a10.216 10.216 0 007.188 1.229.504.504 0 00.405-.5.51.51 0 00-.4-.505c-.866-.18-1.596-.455-2.233-.836-3.575-2.115-4.804-6.813-2.739-10.475 2.065-3.663 6.651-4.923 10.226-2.808.637.38 1.236.892 1.822 1.566a.488.488 0 00.624.1c.206-.125.3-.38.218-.612-.817-2.44-2.464-4.492-4.623-5.765zM18.024 7.05c1.16 0 2.258.237 3.294.6a5.602 5.602 0 001.84-2.54 12.89 12.89 0 00-5.128-1.06c-1.816 0-3.55.374-5.122 1.054a5.602 5.602 0 001.84 2.539c1.03-.356 2.121-.593 3.276-.593zM10.27 27.434a5.682 5.682 0 001.528-2.646 9.908 9.908 0 01-3.675-6.838 5.222 5.222 0 00-1.647-.287 5.08 5.08 0 00-1.404.194 12.994 12.994 0 005.198 9.577zm15.516-.007a5.702 5.702 0 01-1.528-2.651 9.914 9.914 0 003.662-6.82c.537-.174 1.086-.293 1.66-.293.468 0 .936.062 1.385.187a12.955 12.955 0 01-5.179 9.577zM15.03 17.04a2.996 2.996 0 105.991-.001 2.996 2.996 0 00-5.991.001z" fill="#fff"/></svg>