<svg width="36" height="36" fill="none" xmlns="http://www.w3.org/2000/svg"><path fill-rule="evenodd" clip-rule="evenodd" d="M35.813 21.604a2.247 2.247 0 00-2.063-1.354h-4.5V5.625a2.82 2.82 0 00-2.813-2.813 2.82 2.82 0 00-2.812 2.813v9.422a.703.703 0 01-.703.703h-1.406a.703.703 0 01-.703-.703V2.812A2.82 2.82 0 0018 0a2.82 2.82 0 00-2.813 2.813v12.234a.703.703 0 01-.703.703h-1.406a.703.703 0 01-.703-.703V5.625a2.82 2.82 0 00-2.812-2.813A2.82 2.82 0 006.75 5.626V20.25h-4.5c-.896 0-1.707.532-2.063 1.354a2.248 2.248 0 00.418 2.43l7.22 7.737C10.334 34.46 14.041 36 18 36c3.96 0 7.666-1.541 10.176-4.229l7.22-7.736c.61-.655.775-1.61.417-2.431zM18 29.25c-3.728 0-6.75-4.5-6.75-4.5s3.022-4.5 6.75-4.5 6.75 4.5 6.75 4.5-3.022 4.5-6.75 4.5zm-2.25-4.5a2.25 2.25 0 114.5 0 2.25 2.25 0 01-4.5 0z" fill="#FF4F4F"/></svg>