<svg width="36" height="22" fill="none" xmlns="http://www.w3.org/2000/svg"><path fill-rule="evenodd" clip-rule="evenodd" d="M19.62 0h4.832c.478 0 .94.194 1.271.537l3.071 3.12v11.057a4.08 4.08 0 00-.444-.44L20.16 7.52l1.468-1.366a.923.923 0 00.056-1.291.894.894 0 00-1.27-.057l-4.495 4.183a.028.028 0 01-.011.005.029.029 0 00-.012.006c-.94.851-2.441.64-3.155-.154a2.299 2.299 0 01.118-3.2l.008-.012.009-.011L18.405.48C18.737.171 19.17 0 19.62 0zM30.6 16.463V3.669H36V18.29h-3.6c-.996 0-1.8-.817-1.8-1.828zm2.7 0a.91.91 0 01-.9-.914.91.91 0 01.9-.915c.495 0 .9.412.9.915a.91.91 0 01-.9.914zM3.6 18.286H0V3.669h5.4v12.788c0 1.012-.804 1.829-1.8 1.829zm-.9-3.652c.495 0 .9.412.9.915a.91.91 0 01-.9.914.91.91 0 01-.9-.914c0-.509.405-.915.9-.915zm16.121-5.863l8.398 6.926c.771.64.89 1.789.26 2.577l-.535.669a1.778 1.778 0 01-2.531.268l-.304-.251-1.767 2.206a2.068 2.068 0 01-2.941.308l-1.007-.885-.011.011a3.561 3.561 0 01-5.063.531l-5.09-4.68H7.2V3.657l3.077-3.12A1.783 1.783 0 0111.548 0h4.714L11.66 4.28c-1.643 1.531-1.761 4.131-.248 5.811a4.011 4.011 0 005.72.252l1.688-1.572z" fill="#FF4F4F"/></svg>