<svg width="32" height="36" fill="none" xmlns="http://www.w3.org/2000/svg"><path fill-rule="evenodd" clip-rule="evenodd" d="M5.45 15.75H4.5a1.128 1.128 0 01-1.125-1.125v-6.75c0-.619.506-1.125 1.125-1.125h.95C7.185 2.777 11.136 0 15.75 0s8.564 2.777 10.3 6.75H27c.619 0 1.125.506 1.125 1.125v6.75c0 .619-.506 1.125-1.125 1.125h-.95c-1.736 3.973-5.688 6.75-10.3 6.75-4.613 0-8.564-2.777-10.3-6.75zm5.237-9c-1.863 0-3.374 1.259-3.374 2.813v1.687a6.752 6.752 0 006.75 6.75h3.374a6.752 6.752 0 006.75-6.75V9.562c0-1.553-1.511-2.812-3.375-2.812H10.688zm1.688 7.875l.844-2.531 2.531-.844-2.531-.844-.844-2.531-.844 2.531L9 11.25l2.531.844.844 2.531zM15.75 24.75c2.686 0 5.182-.794 7.284-2.152 4.747.5 8.466 4.472 8.466 9.352v.675A3.376 3.376 0 0128.125 36H22.5v-4.5a2.248 2.248 0 00-2.25-2.25h-9A2.248 2.248 0 009 31.5V36H3.375A3.376 3.376 0 010 32.625v-.675c0-4.88 3.72-8.852 8.466-9.352a13.382 13.382 0 007.284 2.152zm3.375 6.75c-.619 0-1.125.506-1.125 1.125s.506 1.125 1.125 1.125 1.125-.506 1.125-1.125-.506-1.125-1.125-1.125zm-7.875 1.125c0-.619.506-1.125 1.125-1.125s1.125.506 1.125 1.125V36h-2.25v-3.375z" fill="#FF4F4F"/></svg>